<svg width="100" height="100" viewBox="0 0 100 100" fill="none" xmlns="http://www.w3.org/2000/svg">
<path d="M54.9786 33.3762V32.5619L52.4476 32.7357C51.731 32.781 51.1929 32.9333 50.831 33.1905C50.4691 33.45 50.2881 33.8095 50.2881 34.2691C50.2881 34.7167 50.4667 35.0738 50.8262 35.3381C51.1833 35.6048 51.6643 35.7357 52.2643 35.7357C52.6476 35.7357 53.0071 35.6762 53.3381 35.5595C53.669 35.4429 53.9595 35.2786 54.2024 35.069C54.4452 34.8619 54.6357 34.6143 54.7714 34.3262C54.9095 34.0381 54.9786 33.7214 54.9786 33.3762ZM59.5905 29.8786C59.8238 29.2238 60.1524 28.6619 60.5786 28.1952C61.0048 27.7286 61.5167 27.3691 62.1167 27.1167C62.7167 26.8643 63.3857 26.7381 64.1214 26.7381C64.7857 26.7381 65.3857 26.8381 65.9191 27.0357C66.4548 27.2333 66.9119 27.5 67.2952 27.8357C67.6786 28.1714 67.9833 28.5619 68.2071 29.0095C68.4309 29.4571 68.5643 29.931 68.6095 30.4286H66.6262C66.5762 30.1548 66.4857 29.8976 66.3571 29.6619C66.2286 29.4262 66.0595 29.2214 65.85 29.0476C65.6381 28.8738 65.3905 28.7381 65.1071 28.6405C64.8214 28.5405 64.5024 28.4929 64.1429 28.4929C63.7214 28.4929 63.3381 28.5786 62.9976 28.7476C62.6548 28.9167 62.3619 29.1571 62.119 29.4667C61.8762 29.7762 61.6881 30.1548 61.5548 30.5976C61.419 31.0429 61.3524 31.5357 61.3524 32.0786C61.3524 32.6405 61.419 33.1452 61.5548 33.5881C61.6881 34.0333 61.8786 34.4071 62.1262 34.7143C62.3714 35.0214 62.669 35.2571 63.0143 35.4191C63.3595 35.581 63.7405 35.6643 64.1548 35.6643C64.8333 35.6643 65.3857 35.5048 65.8143 35.1857C66.2429 34.8667 66.519 34.4 66.6476 33.7857H68.6333C68.5762 34.3286 68.4262 34.8238 68.1833 35.2714C67.9405 35.719 67.6262 36.1 67.2405 36.4167C66.8524 36.7333 66.3976 36.9786 65.8738 37.15C65.35 37.3214 64.7738 37.4095 64.1476 37.4095C63.4048 37.4095 62.7357 37.2857 62.1333 37.0405C61.5333 36.7952 61.0167 36.4405 60.5881 35.981C60.1595 35.5214 59.8286 34.9619 59.5952 34.3024C59.3619 33.6429 59.2452 32.9024 59.2452 32.0762C59.2405 31.2691 59.3571 30.5357 59.5905 29.8786ZM31.369 26.8738H33.3548V28.6381H33.3929C33.5143 28.3452 33.6738 28.081 33.8691 27.8524C34.0643 27.6214 34.2881 27.4262 34.5452 27.2619C34.8 27.0976 35.0833 26.9738 35.3881 26.8881C35.6952 26.8024 36.0191 26.7595 36.3571 26.7595C37.0857 26.7595 37.7024 26.9333 38.2024 27.281C38.7048 27.6286 39.0619 28.1286 39.2714 28.781H39.3214C39.4548 28.4667 39.631 28.1857 39.8476 27.9381C40.0643 27.6905 40.3143 27.4762 40.5952 27.3C40.8762 27.1238 41.1857 26.9905 41.5214 26.8976C41.8571 26.8048 42.2095 26.7595 42.581 26.7595C43.0929 26.7595 43.5571 26.8405 43.9762 27.0048C44.3952 27.1691 44.7524 27.3976 45.05 27.6952C45.3476 27.9929 45.5762 28.3548 45.7357 28.7786C45.8952 29.2024 45.9762 29.6738 45.9762 30.1929V37.2905H43.9048V30.6905C43.9048 30.0071 43.7286 29.4762 43.3762 29.1024C43.0262 28.7286 42.5238 28.5405 41.8714 28.5405C41.5524 28.5405 41.2595 28.5976 40.9929 28.7095C40.7286 28.8214 40.4976 28.9786 40.3071 29.181C40.1143 29.381 39.9643 29.6238 39.8571 29.9048C39.7476 30.1857 39.6929 30.4929 39.6929 30.8262V37.2905H37.65V30.5191C37.65 30.2191 37.6024 29.9476 37.5095 29.7048C37.4167 29.4619 37.2857 29.2548 37.1119 29.081C36.9405 28.9071 36.7286 28.7762 36.4833 28.6833C36.2357 28.5905 35.9595 28.5429 35.6524 28.5429C35.3333 28.5429 35.0381 28.6024 34.7643 28.7214C34.4929 28.8405 34.2595 29.0048 34.0643 29.2143C33.869 29.4262 33.7167 29.6738 33.6095 29.9619C33.5048 30.2476 33.3333 30.5619 33.3333 30.9V37.2881H31.369V26.8738ZM35.8762 76.7286C26.769 76.7286 21.0571 70.4 21.0571 60.3C21.0571 50.2 26.769 43.85 35.8762 43.85C44.9833 43.85 50.6738 50.2 50.6738 60.3C50.6738 70.3976 44.9833 76.7286 35.8762 76.7286ZM52.7381 37.2643C52.4024 37.35 52.0595 37.3929 51.7071 37.3929C51.1881 37.3929 50.7143 37.3191 50.2833 37.1714C49.85 37.0238 49.481 36.8167 49.1714 36.5476C48.8619 36.2786 48.619 35.9548 48.4476 35.5738C48.2738 35.1929 48.1881 34.7691 48.1881 34.3024C48.1881 33.3881 48.5286 32.6738 49.2095 32.1595C49.8905 31.6452 50.8762 31.3452 52.169 31.2619L54.9786 31.1V30.2952C54.9786 29.6952 54.7881 29.2357 54.4071 28.9238C54.0262 28.6119 53.4881 28.4548 52.7905 28.4548C52.5095 28.4548 52.2452 28.4905 52.0024 28.5595C51.7595 28.631 51.5452 28.731 51.3595 28.8619C51.1738 28.9929 51.0191 29.15 50.9 29.3333C50.7786 29.5143 50.6952 29.7191 50.65 29.9429H48.7024C48.7143 29.4833 48.8286 29.0571 49.0429 28.6667C49.2571 28.2762 49.5476 27.9381 49.9167 27.65C50.2857 27.3619 50.7167 27.1381 51.2167 26.9786C51.7167 26.8191 52.2595 26.7381 52.8476 26.7381C53.4809 26.7381 54.0548 26.8167 54.5691 26.9786C55.0833 27.1405 55.5238 27.3667 55.8881 27.6643C56.2524 27.9619 56.5333 28.3191 56.7309 28.7381C56.9286 29.1571 57.0286 29.6262 57.0286 30.1429V37.2881H55.0452V35.5524H54.9952C54.8476 35.8333 54.6619 36.0881 54.4357 36.3143C54.2071 36.5405 53.9524 36.7357 53.6691 36.8952C53.3833 37.0548 53.0738 37.1786 52.7381 37.2643ZM65.8405 76.7286C58.8952 76.7286 54.1738 73.0905 53.8452 67.3786H58.3667C58.719 70.6429 61.8738 72.8048 66.1952 72.8048C70.3405 72.8048 73.319 70.6429 73.319 67.6881C73.319 65.131 71.5095 63.5857 67.3214 62.5286L63.2405 61.5143C57.3738 60.0595 54.7071 57.3905 54.7071 53.0024C54.7071 47.6 59.4262 43.85 66.1524 43.85C72.7238 43.85 77.3095 47.6214 77.4857 53.0452H73.0095C72.7 49.781 70.0333 47.7738 66.0619 47.7738C62.1143 47.7738 59.381 49.8024 59.381 52.7357C59.381 55.05 61.1 56.419 65.2905 57.4762L68.7309 58.3357C75.2809 59.9238 77.9714 62.5048 77.9714 67.1357C77.969 73.0452 73.2952 76.7286 65.8405 76.7286ZM35.8762 47.9048C29.6357 47.9048 25.7333 52.6905 25.7333 60.2976C25.7333 67.8833 29.6357 72.669 35.8762 72.669C42.0952 72.669 46.019 67.8833 46.019 60.2976C46.0214 52.6905 42.0952 47.9048 35.8762 47.9048Z" fill="white"/>
</svg>
