<svg width="100" height="100" viewBox="0 0 100 100" fill="none" xmlns="http://www.w3.org/2000/svg">
<path d="M63.6621 26.3345C66.8547 28.1782 70.936 27.0846 72.7785 23.8929C74.6219 20.7 73.5292 16.619 70.3363 14.7756C67.144 12.9328 63.063 14.0261 61.2196 17.219C59.3768 20.4107 60.4701 24.4917 63.6621 26.3345V26.3345ZM50 69.4996C47.0646 69.4996 44.2828 68.8469 41.7858 67.6853L37.1474 75.9974C41.0218 77.9159 45.3838 78.9998 50 78.9998C52.6846 78.9998 55.2804 78.6278 57.7473 77.9447C58.1838 75.2636 59.7758 72.7926 62.3138 71.327C64.8474 69.8642 67.7796 69.7192 70.3177 70.6785C75.2537 65.8249 78.4655 59.2216 78.9331 51.8678L69.4194 51.7292C68.5439 61.6904 60.1872 69.4996 50 69.4996ZM50 30.4998C60.1872 30.4998 68.5439 38.3106 69.4194 48.2704L78.9331 48.1316C78.4649 40.7784 75.253 34.1751 70.3164 29.3218C67.7786 30.2804 64.8468 30.1351 62.3129 28.6721C59.7751 27.2071 58.1834 24.7364 57.747 22.055C55.2804 21.3725 52.6846 21.0002 50 21.0002C45.3838 21.0002 41.0222 22.0838 37.148 24.0029L41.7861 32.314C44.2828 31.1524 47.0646 30.4998 50 30.4998V30.4998ZM30.5004 49.9997C30.5004 43.4024 33.779 37.5755 38.792 34.0471L33.9118 25.8717C28.0701 29.775 23.7242 35.7414 21.9193 42.7302C24.0279 44.4489 25.3752 47.0662 25.3752 50.0003C25.3752 52.9341 24.0276 55.5514 21.919 57.2698C23.7236 64.2589 28.0695 70.2253 33.9115 74.1286L38.792 65.9529C33.779 62.4248 30.5004 56.5979 30.5004 49.9997V49.9997ZM63.663 73.6646C60.4701 75.508 59.3768 79.5887 61.2199 82.7803C63.0633 85.9733 67.144 87.0672 70.3369 85.2238C73.5289 83.3807 74.6225 79.2997 72.7791 76.1071C70.9363 72.9157 66.855 71.8218 63.663 73.6646ZM16.0007 43.3251C12.3132 43.3251 9.32516 46.3128 9.32516 50.0003C9.32516 53.6868 12.3132 56.6749 16.0007 56.6749C19.6869 56.6749 22.6752 53.6868 22.6752 50.0003C22.6752 46.3128 19.6869 43.3251 16.0007 43.3251Z" fill="white"/>
</svg>
